<svg xmlns="http://www.w3.org/2000/svg" width="1024" height="1024" viewBox="0 0 1024 1024">
  <defs>
    <linearGradient id="bg" x1="0" y1="0" x2="1" y2="1">
      <stop offset="0%" stop-color="#1e3b4d" />
      <stop offset="100%" stop-color="#0f202b" />
    </linearGradient>
    <linearGradient id="accent" x1="0" y1="0" x2="1" y2="1">
      <stop offset="0%" stop-color="#4db3d9" />
      <stop offset="100%" stop-color="#2f91bc" />
    </linearGradient>
  </defs>

  <rect x="64" y="64" width="896" height="896" rx="196" fill="url(#bg)" />
  <rect x="220" y="300" width="584" height="424" rx="80" fill="url(#accent)" opacity="0.92" />
  <path
    d="M220 380 L512 570 L804 380"
    fill="none"
    stroke="#eaf7fd"
    stroke-width="58"
    stroke-linecap="round"
    stroke-linejoin="round"
  />
  <circle cx="512" cy="590" r="84" fill="#0f202b" />
  <path
    d="M512 536 C489 536 470 555 470 578 C470 598 483 612 500 619 L500 652 C500 661 507 668 516 668 C525 668 532 661 532 652 L532 619 C549 612 562 598 562 578 C562 555 543 536 520 536 Z"
    fill="#eaf7fd"
  />
</svg>
